# xmcd
#
# Track frame offsets: 
#        150
#        19418
#        39554
#
# Disc length: 750 seconds
#
# Revision: 0
# Processed by: cddbd v1.5.2PL0 Copyright (c) Steve Scherf et al.
# Submitted via: ExactAudioCopyFreeDBPlugin 1.0
#
DISCID=1f02ec03
DTITLE=Dave Alvin and The Guilty Ones - Eleven Eleven Bonus Disc
DYEAR=2012
DGENRE=Rock
TTITLE0=Beautiful City 'cross The River
TTITLE1=Signal Hill
TTITLE2=Dave Alvin and The Guilty Ones ( Duet with Candye Kane) - Never 
TTITLE2=Trust A Woman
EXTD=
EXTT0=
EXTT1=
EXTT2=
PLAYORDER=
